<svg xmlns="http://www.w3.org/2000/svg" viewBox="0 0 512 512" role="img" aria-labelledby="title desc">
  <title id="title">Camino de PoCoBOT</title>
  <desc id="desc">Icono del modo historia de PoCoBOT con una ruta luminosa y nodos de la Ruta Ceniza.</desc>
  <defs>
    <radialGradient id="bgGlow" cx="36%" cy="26%" r="78%">
      <stop offset="0" stop-color="#24384c"/>
      <stop offset="0.42" stop-color="#101923"/>
      <stop offset="1" stop-color="#05070d"/>
    </radialGradient>
    <linearGradient id="rim" x1="60" y1="36" x2="452" y2="476" gradientUnits="userSpaceOnUse">
      <stop offset="0" stop-color="#ffd9a6"/>
      <stop offset="0.36" stop-color="#8ff4ff"/>
      <stop offset="0.68" stop-color="#d17d3f"/>
      <stop offset="1" stop-color="#f7c46f"/>
    </linearGradient>
    <linearGradient id="route" x1="124" y1="386" x2="390" y2="112" gradientUnits="userSpaceOnUse">
      <stop offset="0" stop-color="#ffb25f"/>
      <stop offset="0.5" stop-color="#8ff4ff"/>
      <stop offset="1" stop-color="#fff1c7"/>
    </linearGradient>
    <filter id="softGlow" x="-60%" y="-60%" width="220%" height="220%">
      <feGaussianBlur stdDeviation="9" result="blur"/>
      <feColorMatrix in="blur" type="matrix" values="0 0 0 0 0.56 0 0 0 0 0.96 0 0 0 0 1 0 0 0 0.85 0" result="cyan"/>
      <feMerge>
        <feMergeNode in="cyan"/>
        <feMergeNode in="SourceGraphic"/>
      </feMerge>
    </filter>
    <filter id="amberGlow" x="-70%" y="-70%" width="240%" height="240%">
      <feGaussianBlur stdDeviation="7" result="blur"/>
      <feColorMatrix in="blur" type="matrix" values="0 0 0 0 1 0 0 0 0 0.57 0 0 0 0 0.22 0 0 0 0.9 0" result="amber"/>
      <feMerge>
        <feMergeNode in="amber"/>
        <feMergeNode in="SourceGraphic"/>
      </feMerge>
    </filter>
    <pattern id="grid" width="34" height="34" patternUnits="userSpaceOnUse">
      <path d="M34 0H0V34" fill="none" stroke="#8ff4ff" stroke-opacity="0.09" stroke-width="1"/>
    </pattern>
  </defs>
  <rect width="512" height="512" rx="116" fill="#05070d"/>
  <rect x="20" y="20" width="472" height="472" rx="104" fill="url(#bgGlow)"/>
  <rect x="20" y="20" width="472" height="472" rx="104" fill="url(#grid)" opacity="0.68"/>
  <path d="M70 372C119 313 139 255 206 252c64-3 70 73 128 52 42-15 49-69 96-96"
        fill="none" stroke="#8ff4ff" stroke-opacity="0.16" stroke-width="46" stroke-linecap="round"/>
  <path d="M70 372C119 313 139 255 206 252c64-3 70 73 128 52 42-15 49-69 96-96"
        fill="none" stroke="url(#route)" stroke-width="23" stroke-linecap="round" stroke-linejoin="round" filter="url(#softGlow)"/>
  <path d="M70 372C119 313 139 255 206 252c64-3 70 73 128 52 42-15 49-69 96-96"
        fill="none" stroke="#05070d" stroke-opacity="0.7" stroke-width="5" stroke-linecap="round" stroke-dasharray="2 28"/>
  <g filter="url(#amberGlow)">
    <circle cx="70" cy="372" r="31" fill="#241612" stroke="#ffd9a6" stroke-width="8"/>
    <circle cx="206" cy="252" r="22" fill="#09131d" stroke="#8ff4ff" stroke-width="7"/>
    <circle cx="334" cy="304" r="24" fill="#241612" stroke="#ffb25f" stroke-width="7"/>
    <circle cx="430" cy="208" r="32" fill="#0a121b" stroke="#fff1c7" stroke-width="8"/>
  </g>
  <path d="M256 116l86 58v99c0 80-48 123-86 139-38-16-86-59-86-139v-99l86-58z"
        fill="#07101a" fill-opacity="0.72" stroke="#8ff4ff" stroke-opacity="0.4" stroke-width="6"/>
  <path d="M224 180h64l31 57-63 94-63-94 31-57z"
        fill="#0b1a28" stroke="#ffd9a6" stroke-width="8" stroke-linejoin="round"/>
  <path d="M256 188v132M211 236h90" stroke="#8ff4ff" stroke-width="13" stroke-linecap="round" opacity="0.86"/>
  <path d="M205 338h102" stroke="#ffb25f" stroke-width="10" stroke-linecap="round" opacity="0.9"/>
  <text x="256" y="454" text-anchor="middle"
        font-family="Impact, 'Arial Black', sans-serif" font-size="48" letter-spacing="7"
        fill="#fff1c7" opacity="0.96">CAMINO</text>
  <rect x="20" y="20" width="472" height="472" rx="104" fill="none" stroke="url(#rim)" stroke-width="10" opacity="0.92"/>
  <rect x="34" y="34" width="444" height="444" rx="92" fill="none" stroke="#000" stroke-opacity="0.42" stroke-width="3"/>
</svg>
